<?xml version="1.0" encoding="UTF-8" standalone="no"?>
<!-- Created with Inkscape (http://www.inkscape.org/) -->

<svg
   xmlns:dc="http://purl.org/dc/elements/1.1/"
   xmlns:cc="http://creativecommons.org/ns#"
   xmlns:rdf="http://www.w3.org/1999/02/22-rdf-syntax-ns#"
   xmlns:svg="http://www.w3.org/2000/svg"
   xmlns="http://www.w3.org/2000/svg"
   xmlns:sodipodi="http://sodipodi.sourceforge.net/DTD/sodipodi-0.dtd"
   xmlns:inkscape="http://www.inkscape.org/namespaces/inkscape"
   width="43.86792mm"
   height="59.859985mm"
   viewBox="0 0 155.43751 212.10231"
   id="svg5951"
   version="1.1"
   inkscape:version="0.91 r13725"
   sodipodi:docname="grafo curva eliptica reales 2.svg">
  <defs
     id="defs5953" />
  <sodipodi:namedview
     id="base"
     pagecolor="#ffffff"
     bordercolor="#666666"
     borderopacity="1.0"
     inkscape:pageopacity="0.0"
     inkscape:pageshadow="2"
     inkscape:zoom="0.35"
     inkscape:cx="-61.566937"
     inkscape:cy="-53.948842"
     inkscape:document-units="px"
     inkscape:current-layer="layer1"
     showgrid="false"
     fit-margin-top="0"
     fit-margin-left="0"
     fit-margin-right="0"
     fit-margin-bottom="0"
     inkscape:window-width="576"
     inkscape:window-height="442"
     inkscape:window-x="1074"
     inkscape:window-y="314"
     inkscape:window-maximized="0" />
  <metadata
     id="metadata5956">
    <rdf:RDF>
      <cc:Work
         rdf:about="">
        <dc:format>image/svg+xml</dc:format>
        <dc:type
           rdf:resource="http://purl.org/dc/dcmitype/StillImage" />
        <dc:title></dc:title>
      </cc:Work>
    </rdf:RDF>
  </metadata>
  <g
     inkscape:label="Layer 1"
     inkscape:groupmode="layer"
     id="layer1"
     transform="translate(-436.56694,-266.31105)">
    <path
       inkscape:connector-curvature="0"
       id="path3461"
       style="fill:none;stroke:#4c4c4c;stroke-width:0.60750002;stroke-linecap:round;stroke-linejoin:round;stroke-miterlimit:10;stroke-dasharray:none;stroke-opacity:1"
       d="m 588.69136,269.69769 -1.7475,2.47125 m -1.55875,2.1275 1.55875,-2.1275 m -1.55875,2.1275 -0.2275,0.3425 m -0.305,0.41875 0.305,-0.41875 m 0.2275,197.13875 -0.5325,-0.76 m 0.5325,0.76 3.30625,4.59875 m -3.83875,-201.31875 -1.4825,2.01375 m -1.3675,1.82375 1.3675,-1.82375 m -1.3675,1.82375 -0.41875,0.64625 m -0.57,0.76 0.57,-0.76 m 0.41875,187.6375 -0.98875,-1.40625 m 3.83875,5.245 -2.85,-3.83875 m -0.98875,-186.8775 -1.25375,1.6725 m -1.17875,1.52 1.17875,-1.52 m -1.17875,1.52 -0.645,0.875 m -0.76125,1.02625 0.76125,-1.02625 m 0.645,178.21125 -1.40625,-1.9 m 3.83875,5.0925 -2.4325,-3.1925 m -1.40625,-177.185 -1.06375,1.3675 m -1.02625,1.33125 1.02625,-1.33125 m -1.02625,1.33125 -0.83625,1.06375 m -0.91125,1.21625 0.91125,-1.21625 m 0.83625,168.82375 -1.7475,-2.28 m 3.8375,4.97875 -2.09,-2.69875 m -1.7475,-167.6075 -0.95125,1.14 m -0.91125,1.14 0.91125,-1.14 m -0.91125,1.14 -0.95,1.21625 m -1.02625,1.33 1.02625,-1.33 m 0.95,159.55 -1.97625,-2.54625 m 3.83875,4.8275 -1.8625,-2.28125 m -1.97625,-158.22 -0.83625,1.02625 m -0.875,1.02625 0.875,-1.02625 m -0.875,1.02625 -1.02625,1.2925 m -1.10125,1.3675 1.10125,-1.3675 m 1.02625,150.27625 -2.1275,-2.66 m 3.83875,4.7125 -1.71125,-2.0525 m -2.1275,-148.90875 -0.79875,0.95125 m -0.87375,0.9875 0.87375,-0.9875 m -0.87375,0.9875 -1.06375,1.2925 m -1.1025,1.33 1.1025,-1.33 m 1.06375,141.07875 -2.16625,-2.6225 m 3.83875,4.56125 -1.6725,-1.93875 m -2.16625,-139.74875 -0.83625,0.95 m -0.9125,1.02625 0.9125,-1.02625 m -0.9125,1.02625 -1.02625,1.21625 m -1.06375,1.25375 1.06375,-1.25375 m 1.02625,131.9575 -2.09,-2.47 m 3.83875,4.44625 -1.74875,-1.97625 m -2.09,-130.70375 -0.9125,0.98875 m -1.06375,1.14 1.06375,-1.14 m -1.06375,1.14 -0.95,1.06375 m -0.9125,1.065 0.9125,-1.065 m 0.95,122.9125 -1.8625,-2.1275 m 3.83875,4.25625 -1.97625,-2.12875 m -1.8625,-121.8475 -1.1025,1.14 m -1.25375,1.33 1.25375,-1.33 m -1.25375,1.33 -0.76,0.83625 m -0.7225,0.79875 0.7225,-0.79875 m 0.76,113.9425 -1.4825,-1.63375 m 3.83875,4.105 -2.35625,-2.47125 m -1.4825,-113.14375 -1.33,1.33 m -1.63375,1.59625 1.63375,-1.59625 m -1.63375,1.59625 -0.45625,0.53125 m -0.41875,0.45625 0.41875,-0.45625" />
    <path
       inkscape:connector-curvature="0"
       id="path3463"
       style="fill:none;stroke:#4c4c4c;stroke-width:0.60750002;stroke-linecap:round;stroke-linejoin:round;stroke-miterlimit:10;stroke-dasharray:none;stroke-opacity:1"
       d="m 547.34136,425.86644 -0.875,-0.98875 m 3.83875,3.915 -2.96375,-2.92625 m -0.875,-104.67 -1.6725,1.59625 m -2.09,2.015 2.09,-2.015 m -2.09,2.015 -0.0375,0.0375 m -0.0387,0.0387 0.0387,-0.0387 m 0.0375,96.4225 -0.0763,-0.0762 m 3.83875,3.68625 -3.7625,-3.61 m -0.0763,-96.38375 -2.09,1.97625 m -1.74875,1.63375 1.74875,-1.63375 m 2.09,94.33125 -0.26625,-0.26625 m -3.5725,-3.345 3.5725,3.345 m -3.5725,-92.43125 -0.455,0.3425 m -0.685,0.57 0.685,-0.57 m -0.685,0.57 -1.52,1.3675 m -1.17875,1.065 1.17875,-1.065 m 1.52,85.895 -2.69875,-2.4325 m 3.83875,3.34375 -1.14,-0.91125 m -2.69875,-84.83 -1.06375,0.83625 m -1.71,1.33 1.71,-1.33 m -1.71,1.33 -0.60875,0.53125 m -0.455,0.38 0.455,-0.38 m 0.60875,77.53375 -1.06375,-0.9125 m 3.8375,3.07875 -2.77375,-2.16625 m -1.06375,-77.15375 -1.8625,1.40625 m -1.97625,1.4825 1.97625,-1.4825 m 1.8625,74.835 -2.0525,-1.55875 m -1.78625,-1.33 1.78625,1.33 m -1.78625,-71.79375 -0.41875,0.26625 m -0.83625,0.5325 0.83625,-0.5325 m -0.83625,0.5325 -1.59625,1.14 m -0.9875,0.68375 0.9875,-0.68375 m 1.59625,67.7275 -2.58375,-1.825 m 3.83875,2.6225 -1.255,-0.7975 m -2.58375,-67.04375 -1.52,0.9125 m -2.31875,1.40625 2.31875,-1.40625 m 1.52,64.30625 -3.07875,-1.8625 m -0.76,-0.455 0.76,0.455 m -0.76,-61.0375 -0.26625,0.11375 m -0.64625,0.3425 0.64625,-0.3425 m -0.64625,0.3425 -1.97625,1.1025 m -0.95,0.53125 0.95,-0.53125 m 1.97625,58.5675 -2.92625,-1.635 m 3.83875,2.09125 -0.9125,-0.45625 m -2.92625,-58.03625 -1.78625,0.79875 m -2.0525,0.91125 2.0525,-0.91125 m 1.78625,55.6025 -2.205,-0.9875 m -1.63375,-0.7225 1.63375,0.7225 m -1.63375,-53.70375 -0.76,0.305 m -2.69875,0.91125 2.69875,-0.91125 m -2.69875,0.91125 -0.26625,0.1525 m -0.11375,0.0375 0.11375,-0.0375 m 0.26625,50.39625 -0.38,-0.19 m 3.83875,1.40625 -3.45875,-1.21625 m -0.38,-50.35875 -2.92625,0.9125 m -0.9125,0.30375 0.9125,-0.30375 m 2.92625,49.25625 -0.15125,-0.0375 m -3.6875,-1.17875 3.6875,1.17875 m -3.6875,-48.915 -2.2425,0.5325 m -1.59625,0.3425 1.59625,-0.3425 m 2.2425,47.20375 -1.40625,-0.3425 m -2.4325,-0.53125 2.4325,0.53125 m -2.4325,-46.51875 -1.71,0.30375 m -2.12875,0.3425 2.12875,-0.3425" />
    <path
       inkscape:connector-curvature="0"
       id="path3465"
       style="fill:none;stroke:#4c4c4c;stroke-width:0.60750002;stroke-linecap:round;stroke-linejoin:round;stroke-miterlimit:10;stroke-dasharray:none;stroke-opacity:1"
       d="m 500.40261,396.03144 -2.20375,-0.38 m -1.635,-0.26625 1.635,0.26625 m -1.635,-44.96125 -1.29125,0.15125 m -2.5475,0.26625 2.5475,-0.26625 m 1.29125,44.54375 -2.66,-0.30375 m -1.17875,-0.115 1.17875,0.115 m -1.17875,-43.97375 -0.9875,0.0763 m -2.85,0.2275 2.85,-0.2275 m 0.9875,43.7825 -2.96375,-0.2275 m -0.87375,-0.0762 0.87375,0.0762 m -0.87375,-43.3275 -0.76125,0.0387 m -3.0775,0.19 3.0775,-0.19 m 0.76125,43.2125 -3.1925,-0.19 m -0.64625,-0.0375 0.64625,0.0375 m -0.64625,-42.8325 -0.57,0.0375 m -3.26875,0.19 3.26875,-0.19 m 0.57,42.7575 -3.3825,-0.22875 m -0.45625,0 0.45625,0 m -0.45625,-42.33875 -0.38,0.0387 m -3.45875,0.265 3.45875,-0.265 m 0.38,42.3 -3.64875,-0.30375 m -0.19,0 0.19,0 m -0.19,-41.73125 -0.1525,0.0388 m -1.52,0.15125 1.52,-0.15125 m -1.52,0.15125 -1.93875,0.26625 m -0.2275,0.0387 0.2275,-0.0387 m 1.93875,41.085 -2.16625,-0.30375 m 3.83875,0.49375 -1.6725,-0.19 m -2.16625,-41.04625 -3.04,0.64625 m -0.79875,0.15125 0.79875,-0.15125 m 3.04,40.09625 -0.30375,-0.0763 m -3.535,-0.7225 3.535,0.7225 m -3.535,-39.86875 -2.35625,0.68375 m -1.4825,0.41875 1.4825,-0.41875 m 2.35625,38.4625 -1.21625,-0.34125 m -2.6225,-0.76 2.6225,0.76 m -2.6225,-37.7025 -1.4825,0.6075 m -2.35625,0.95 2.35625,-0.95 m 1.4825,36.335 -2.77375,-1.1025 m -1.065,-0.45625 1.065,0.45625 m -1.065,-34.2825 -0.49375,0.22875 m -1.1025,0.6075 1.1025,-0.6075 m -1.1025,0.6075 -1.40625,0.98875 m -0.83625,0.57 0.83625,-0.57 m 1.40625,31.165 -2.2425,-1.55875 m 3.83875,2.395 -1.59625,-0.83625 m -2.2425,-30.595 -1.44375,1.2925 m -1.9,1.7475 1.9,-1.7475 m -1.9,1.7475 -0.22875,0.305 m -0.26625,0.34125 0.26625,-0.34125 m 0.22875,22.65125 -0.495,-0.64625 m 3.83875,3.68625 -3.34375,-3.04 m -0.495,-22.31 -1.3675,2.31875 m -0.95,1.63375 0.95,-1.63375 m -0.95,1.63375 -0.38,1.33125 m -0.95,3.2675 0.95,-3.2675 m -0.95,3.2675 0,0.19 m 0,4.37125 0,-4.37125 m 0,4.37125 0.075,0.3425 m 1.255,4.25625 -1.255,-4.25625 m 3.5725,8.20875 -2.3175,-3.9525" />
    <path
       inkscape:connector-curvature="0"
       id="path3467"
       style="fill:none;stroke:#000000;stroke-width:0.27000001;stroke-linecap:round;stroke-linejoin:round;stroke-miterlimit:10;stroke-dasharray:none;stroke-opacity:1"
       d="m 485.04886,478.27644 0,-210.47875 m -1.93875,181.975 1.93875,0 m -1.93875,-38.34875 1.93875,0 m -1.93875,-38.38625 1.93875,0 m -1.93875,-38.38625 1.93875,0 m -1.93875,-38.34875 1.93875,0 m -48.345,76.735 152.02625,0 m -69.13375,1.44375 0,-1.44375 m 34.5475,1.44375 0,-1.44375" />
    <text
       y="452.01443"
       x="475.3569"
       id="text3469"
       style="font-variant:normal;font-weight:normal;font-size:5.85300016px;font-family:Helvetica;-inkscape-font-specification:Helvetica;writing-mode:lr-tb;fill:#000000;fill-opacity:1;fill-rule:nonzero;stroke:none">
      <tspan
         id="tspan3471"
         sodipodi:role="line"
         y="452.01443"
         x="475.3569 478.61111">–4</tspan>
      <tspan
         id="tspan3473"
         sodipodi:role="line"
         y="413.66617"
         x="475.47098 478.72525">–2</tspan>
      <tspan
         id="tspan3475"
         y="377.52213"
         x="478.96756">0</tspan>
      <tspan
         id="tspan3477"
         y="336.89294"
         x="479.04367">2</tspan>
      <tspan
         id="tspan3479"
         y="298.5441"
         x="478.96756">4</tspan>
      <tspan
         id="tspan3481"
         sodipodi:role="line"
         y="379.61224"
         x="518.45599 552.50989">12</tspan>
    </text>
    <text
       y="381.70282"
       x="587.84357"
       id="text3483"
       style="font-style:italic;font-variant:normal;font-size:9.53187561px;font-family:Times;-inkscape-font-specification:Times-Italic;writing-mode:lr-tb;fill:#000000;fill-opacity:1;fill-rule:nonzero;stroke:none">
      <tspan
         id="tspan3485"
         y="381.70282"
         x="587.84357">x</tspan>
      <tspan
         id="tspan3487"
         y="270.68604"
         x="477.55032">y</tspan>
    </text>
  </g>
</svg>
