<?xml version="1.0" encoding="UTF-8" standalone="no"?>
<!-- Created with Inkscape (http://www.inkscape.org/) -->

<svg
   xmlns:dc="http://purl.org/dc/elements/1.1/"
   xmlns:cc="http://creativecommons.org/ns#"
   xmlns:rdf="http://www.w3.org/1999/02/22-rdf-syntax-ns#"
   xmlns:svg="http://www.w3.org/2000/svg"
   xmlns="http://www.w3.org/2000/svg"
   xmlns:sodipodi="http://sodipodi.sourceforge.net/DTD/sodipodi-0.dtd"
   xmlns:inkscape="http://www.inkscape.org/namespaces/inkscape"
   width="51.604893mm"
   height="59.479065mm"
   viewBox="0 0 182.85198 210.75259"
   id="svg11020"
   version="1.1"
   inkscape:version="0.91 r13725"
   sodipodi:docname="ejemplo adicción.svg">
  <defs
     id="defs11022" />
  <sodipodi:namedview
     id="base"
     pagecolor="#ffffff"
     bordercolor="#666666"
     borderopacity="1.0"
     inkscape:pageopacity="0.0"
     inkscape:pageshadow="2"
     inkscape:zoom="0.175"
     inkscape:cx="-371.00626"
     inkscape:cy="253.62456"
     inkscape:document-units="px"
     inkscape:current-layer="layer1"
     showgrid="false"
     fit-margin-top="0"
     fit-margin-left="0"
     fit-margin-right="0"
     fit-margin-bottom="0"
     inkscape:window-width="576"
     inkscape:window-height="442"
     inkscape:window-x="157"
     inkscape:window-y="261"
     inkscape:window-maximized="0" />
  <metadata
     id="metadata11025">
    <rdf:RDF>
      <cc:Work
         rdf:about="">
        <dc:format>image/svg+xml</dc:format>
        <dc:type
           rdf:resource="http://purl.org/dc/dcmitype/StillImage" />
        <dc:title></dc:title>
      </cc:Work>
    </rdf:RDF>
  </metadata>
  <g
     inkscape:label="Layer 1"
     inkscape:groupmode="layer"
     id="layer1"
     transform="translate(-314.28831,-386.98592)">
    <path
       d="m 443.57148,572.93529 0,4.865 m 0,-14.6325 0,4.865 m 0,-14.6325 0,4.865 m 0,-14.6325 0,4.865 m 0,-14.6325 0,4.9025 m 0,-14.67 0,4.9025 m 0,-14.67 0,4.9025 m 0,-14.67 0,4.9025 m 0,-14.67 0,4.9025 m 0,-14.66995 0,4.90245 m 0,-14.66995 0,4.9025 m 0,-14.67125 0,4.90375 m 0,-14.67125 0,4.90375 m 0,-14.67125 0,4.9025 m 0,-14.6325 0,4.865 m 0,-14.6325 0,4.865 m 0,-14.6325 0,4.865 m 0,-14.6325 0,4.865 m -2.8125,-2.2425 2.8125,-2.6225 m -8.4,7.8675 2.8125,-2.6225 m -8.39875,7.8675 2.77375,-2.6225 m -8.39875,7.905 2.8125,-2.6225 m -8.4,7.8675 2.8125,-2.6225 m -8.39875,7.8675 2.77375,-2.6225 m -8.36125,7.905 2.775,-2.6225 m -8.4,7.8675 2.8125,-2.6225 m -8.39875,7.8675 2.8125,-2.6225 m -8.4,7.905 2.775,-2.6225 m -8.4,7.8675 2.8125,-2.6225 m -8.39875,7.8675 2.8125,-2.6225 m -8.4,7.90625 2.775,-2.6225 m -8.36125,7.86625 2.77375,-2.62125 m -8.39875,7.86625 2.8125,-2.6225 m -8.4,7.9062 2.8125,-2.6225 m -8.39875,7.8675 2.77375,-2.6225 m -8.39875,7.8663 2.8125,-2.6225 m -8.4,7.9062 2.8125,-2.6225 m -8.4,7.8675 2.775,-2.6225"
       style="fill:none;stroke:#000000;stroke-width:0.60750002;stroke-linecap:round;stroke-linejoin:round;stroke-miterlimit:10;stroke-dasharray:none;stroke-opacity:1"
       id="path6158"
       inkscape:connector-curvature="0" />
    <path
       d="m 450.41273,391.22784 -1.255,2.88875 m -0.72125,1.63375 0.72125,-1.63375 m -0.72125,1.63375 -0.5325,1.2925 m -1.02625,2.39375 1.02625,-2.39375 m 0.5325,191.93125 -1.55875,-3.6863 m 3.535,8.21 -1.97625,-4.5237 m -1.55875,-189.5375 -0.2275,0.495 m -0.1525,0.30375 0.1525,-0.30375 m -0.1525,0.30375 -1.14,2.585 m -0.875,1.9 0.875,-1.9 m -0.875,1.9 -0.4175,0.9875 m -0.76,1.78625 0.76,-1.78625 m 0.4175,174.29745 -1.1775,-2.775 m 1.1775,2.775 1.52125,3.42 m 0.49375,1.065 -0.49375,-1.065 m 0.87375,1.8625 -0.38,-0.7975 m -3.1925,-176.9962 -0.49375,1.1025 m -0.305,0.60875 0.305,-0.60875 m -0.305,0.60875 -0.9875,2.24125 m -1.02625,2.28125 1.02625,-2.28125 m -1.02625,2.28125 -0.26625,0.6075 m -0.45625,1.1025 0.45625,-1.1025 m 0.26625,156.66245 -0.7225,-1.71 m 0.7225,1.71 0.95,2.1275 m 1.06375,2.395 -1.06375,-2.395 m 1.8625,4.105 -0.79875,-1.71 m -2.73625,-160.08245 -0.83625,1.74875 m -0.49375,1.02625 0.49375,-1.02625 m -0.49375,1.02625 -0.7975,1.82375 m -1.21625,2.66 1.21625,-2.66 m -1.21625,2.66 -0.0763,0.19 m -0.1525,0.38 0.1525,-0.38 m 0.0763,139.1412 -0.22875,-0.57 m 0.22875,0.57 0.34125,0.6838 m 1.6725,3.8012 -1.6725,-3.8012 m 3.0025,6.5762 -1.33,-2.775 m -2.2425,-143.2462 -1.14,2.47125 m -0.7225,1.44375 0.7225,-1.44375 m -0.7225,1.44375 -0.6075,1.40625 m -1.06375,2.4325 1.06375,-2.4325 m 0.6075,128.95495 -1.67125,-3.8387 m 3.53375,7.7537 -1.8625,-3.915 m -1.67125,-126.52245 -0.22875,0.41875 m -0.11375,0.265 0.11375,-0.265 m -0.11375,0.265 -1.21625,2.54625 m -0.9125,1.93875 0.9125,-1.93875 m -0.9125,1.93875 -0.38,0.9125 m -0.7225,1.6725 0.7225,-1.6725 m 0.38,111.4337 -1.1025,-2.5837 m 1.1025,2.5837 1.635,3.4588 m 0.49375,1.0262 -0.49375,-1.0262 m 0.83625,1.71 -0.3425,-0.6838 m -3.23125,-114.2462 -0.57,1.1775 m -0.38,0.7225 0.38,-0.7225 m -0.38,0.7225 -0.95,2.09 m -1.1025,2.395 1.1025,-2.395 m -1.1025,2.395 -0.19,0.45625 m -0.38,0.87375 0.38,-0.87375 m 0.19,93.95125 -0.57,-1.33 m 0.57,1.33 0.7225,1.6337 m 1.33,2.8513 -1.33,-2.8513 m 2.28,4.7513 -0.95,-1.9 m -2.6225,-97.5625 -0.95,1.97625 m -0.57,1.21625 0.57,-1.21625"
       style="fill:none;stroke:#4c4c4c;stroke-width:0.60750002;stroke-linecap:round;stroke-linejoin:round;stroke-miterlimit:10;stroke-dasharray:none;stroke-opacity:1"
       id="path6160"
       inkscape:connector-curvature="0" />
    <path
       d="m 423.99773,449.68159 -0.7225,1.63375 m -1.25375,2.85125 1.25375,-2.85125 m -1.25375,2.85125 0,0.0375 m -0.0375,0.0375 0.0375,-0.0375 m 0,76.355 -0.0375,-0.076 m 0.0375,0.076 0.0387,0.1137 m 1.9375,4.3713 -1.9375,-4.3713 m 3.4575,7.5638 -1.52,-3.1925 m -2.01375,-80.8025 -1.2925,2.775 m -0.76,1.63375 0.76,-1.63375 m -0.76,1.63375 -0.49375,1.2925 m -1.02625,2.47125 1.02625,-2.47125 m 0.49375,66.13125 -1.52,-3.7625 m 3.5725,8.1712 -2.0525,-4.4087 m -1.52,-63.66 -0.22875,0.455 m -0.11375,0.26625 0.11375,-0.26625 m -0.11375,0.26625 -1.1025,2.66125 m -0.7975,1.8625 0.7975,-1.8625 m -0.7975,1.8625 -0.38,1.14 m -0.9125,2.54625 0.9125,-2.54625 m 0.38,48.2675 -1.2925,-3.6863 m 1.2925,3.6863 1.4825,3.535 m 0.4175,0.9875 -0.4175,-0.9875 m 0.76,1.71 -0.3425,-0.7225 m -3.1925,-50.24375 -0.2275,0.53125 m -0.115,0.26625 0.115,-0.26625 m -0.115,0.26625 -0.9875,2.8125 m -0.60875,1.6725 0.60875,-1.6725 m -0.60875,1.6725 -0.38,1.55875 m -0.7975,2.92625 0.7975,-2.92625 m -0.7975,2.92625 -0.0762,0.49375 m -0.38,2.205 0.38,-2.205 m 0.0762,22.0062 -0.45625,-2.6987 m 0.45625,2.6987 0.26625,0.8738 m 0.91125,3.61 -0.91125,-3.61 m 0.91125,3.61 1.33,3.725 m 0.26625,0.76 -0.26625,-0.76 m 0.60875,1.5587 -0.3425,-0.7987 m -3.23,-28.77 -0.30375,1.40625 m -0.115,0.4175 0.115,-0.4175 m -0.115,0.4175 -0.38,3.45875 m -0.11375,1.0262 0.11375,-1.0262 m -0.11375,1.0262 0,3.345 m 0,1.14 0,-1.14 m 0,1.14 0.45625,3.8763 m 0.0375,0.6075 -0.0375,-0.6075 m 0.45625,2.4325 -0.41875,-1.825 m -41.54,-13.45375 -0.7225,-1.6725 m 0.7225,1.6725 0.26625,1.21625 m 0.68375,3.2687 -0.68375,-3.2687 m 0.68375,3.2687 0,2.09 m 0,2.395 0,-2.395 m 0,2.395 -0.3425,1.6713 m -0.6075,2.8125 0.6075,-2.8125 m -0.6075,2.8125 -0.22875,0.6087 m -0.49375,1.0638 0.49375,-1.0638 m -1.71,-18.58495 -2.31875,-3.5725 m 3.535,6.4225 -1.21625,-2.85 m 1.21625,19.64875 -0.76,1.825 m -0.45625,1.0262 0.45625,-1.0262 m -0.45625,1.0262 -1.02625,1.5963 m -1.2925,1.9762 1.2925,-1.9762 m -1.93875,-28.58125 -2.92625,-3.11625 m 3.5725,4.02875 -0.64625,-0.9125"
       style="fill:none;stroke:#4c4c4c;stroke-width:0.60750002;stroke-linecap:round;stroke-linejoin:round;stroke-miterlimit:10;stroke-dasharray:none;stroke-opacity:1"
       id="path6162"
       inkscape:connector-curvature="0" />
    <path
       d="m 365.08773,507.18529 -0.34125,0.4938 m -0.305,0.4175 0.305,-0.4175 m -0.305,0.4175 -1.5575,1.6725 m -1.36875,1.445 1.36875,-1.445 m -2.8125,-37.62625 -2.09,-1.5575 m 3.53375,2.92625 -1.44375,-1.36875 m 1.44375,39.07125 -0.6075,0.57 m -0.83625,0.7975 0.83625,-0.7975 m -0.83625,0.7975 -1.33,0.9887 m -0.76,0.57 0.76,-0.57 m -0.76,-42.98495 -2.31875,-1.33125 m -1.25375,-0.76 1.25375,0.76 m 2.31875,44.8862 -1.59625,0.95 m -1.97625,1.14 1.97625,-1.14 m -4.18125,-47.4312 -1.33,-0.45625 m 3.535,1.29125 -2.205,-0.835 m 2.205,48.5712 -0.5325,0.19 m -1.6725,0.6463 1.6725,-0.6463 m -1.6725,0.6463 -1.06375,0.3425 m -0.26625,0.1137 0.26625,-0.1137 m -0.26625,-50.20625 -0.38,-0.0388 m -3.1925,-0.34125 3.1925,0.34125 m 0.38,50.3587 -2.965,0.3038 m -0.6075,0.076 0.6075,-0.076 m -0.6075,-51.00375 -0.60875,0.075 m -2.96375,0.38 2.96375,-0.38 m 0.60875,51.00495 -3.23125,-0.4187 m -0.34125,-0.038 0.34125,0.038 m -0.34125,-50.20625 -0.19,0.0763 m -0.7225,0.305 0.7225,-0.305 m -0.7225,0.305 -1.9,0.91125 m -0.7225,0.38 0.7225,-0.38 m 1.9,48.49625 -2.6225,-1.2925 m 3.535,1.6725 -0.9125,-0.38 m -2.6225,-48.11625 -1.4825,1.2925 m -2.09,1.82375 2.09,-1.82375 m 1.4825,45.53125 -3.345,-2.9263 m -0.2275,-0.19 0.2275,0.19 m -0.2275,-40.7812 -0.0375,0.0387 m 0,0.0375 0,-0.0375 m 0,0.0375 -1.55875,2.47125 m -1.21625,2.01375 1.21625,-2.01375 m -1.21625,2.01375 -0.26625,0.57 m -0.45625,1.02625 0.45625,-1.02625 m 0.26625,30.89875 -0.7225,-1.5963 m 0.7225,1.5963 2.50875,4.105 m 0.26625,0.38 -0.26625,-0.38 m 0.30375,0.4562 -0.0375,-0.076 m -3.4975,-34.35745 -0.68375,2.015 m -0.30375,0.87375 0.30375,-0.87375 m -0.30375,0.87375 -0.57,2.54625 m -0.45625,1.97625 0.45625,-1.97625 m -0.45625,1.97625 -0.19,1.71 m -0.30375,2.775 0.30375,-2.775 m -0.30375,2.775 0,1.33 m 0,3.155 0,-3.155 m 0,3.155 0.15125,1.5575 m 0.3425,2.9262 -0.3425,-2.9262 m 0.3425,2.9262 0.6075,2.775 m 0.41875,1.7488 -0.41875,-1.7488 m 1.40625,4.6363 -0.9875,-2.8875"
       style="fill:none;stroke:#4c4c4c;stroke-width:0.60750002;stroke-linecap:round;stroke-linejoin:round;stroke-miterlimit:10;stroke-dasharray:none;stroke-opacity:1"
       id="path6164"
       inkscape:connector-curvature="0" />
    <path
       d="m 445.07773,577.79409 c 0,-0.8388 -0.68125,-1.52 -1.52,-1.52 -0.83875,0 -1.52,0.6812 -1.52,1.52 0,0.8387 0.68125,1.52 1.52,1.52 0.83875,0 1.52,-0.6813 1.52,-1.52 m -77.1375,-98.4375 c 0,-0.83875 -0.68125,-1.52 -1.52,-1.52 -0.83875,0 -1.52,0.68125 -1.52,1.52 0,0.83875 0.68125,1.52 1.52,1.52 0.83875,0 1.52,-0.68125 1.52,-1.52 m -31.9875,30.075 c 0,-0.8388 -0.68125,-1.52 -1.52,-1.52 -0.83875,0 -1.52,0.6812 -1.52,1.52 0,0.8387 0.68125,1.52 1.52,1.52 0.83875,0 1.52,-0.6813 1.52,-1.52 m 34.45625,88.17 0,-210.47875 m -55.98375,105.23995 152.02625,0"
       style="fill:none;stroke:#000000;stroke-width:0.27000001;stroke-linecap:round;stroke-linejoin:round;stroke-miterlimit:10;stroke-dasharray:none;stroke-opacity:1"
       id="path6166"
       inkscape:connector-curvature="0" />
    <text
       y="575.97638"
       x="448.84238"
       style="font-style:italic;font-variant:normal;font-size:9.53187561px;font-family:Times;-inkscape-font-specification:Times-Italic;writing-mode:lr-tb;fill:#000000;fill-opacity:1;fill-rule:nonzero;stroke:none"
       id="text6168">
      <tspan
         x="448.84238"
         y="575.97638"
         id="tspan6170">R</tspan>
    </text>
    <text
       y="575.97638"
       x="457.77182"
       style="font-variant:normal;font-weight:normal;font-size:9.53187561px;font-family:MTSYN;-inkscape-font-specification:MTSYN;writing-mode:lr-tb;fill:#000000;fill-opacity:1;fill-rule:nonzero;stroke:none"
       id="text6172">
      <tspan
         x="457.77182"
         y="575.97638"
         id="tspan6174">=</tspan>
    </text>
    <text
       y="575.97638"
       x="467.97757"
       style="font-style:italic;font-variant:normal;font-weight:normal;font-size:9.53187561px;font-family:RMTMI;-inkscape-font-specification:RMTMI;writing-mode:lr-tb;fill:#000000;fill-opacity:1;fill-rule:nonzero;stroke:none"
       id="text6176">
      <tspan
         x="467.97757"
         y="575.97638"
         id="tspan6178">(</tspan>
    </text>
    <text
       y="575.97638"
       x="471.80466"
       style="font-style:italic;font-variant:normal;font-size:9.53187561px;font-family:Times;-inkscape-font-specification:Times-Italic;writing-mode:lr-tb;fill:#000000;fill-opacity:1;fill-rule:nonzero;stroke:none"
       id="text6180">
      <tspan
         x="471.80466"
         y="575.97638"
         id="tspan6182">x</tspan>
    </text>
    <text
       y="578.01752"
       x="476.14175"
       style="font-variant:normal;font-weight:normal;font-size:8.04912472px;font-family:Times;-inkscape-font-specification:Times-Roman;writing-mode:lr-tb;fill:#000000;fill-opacity:1;fill-rule:nonzero;stroke:none"
       id="text6184">
      <tspan
         x="476.14175"
         y="578.01752"
         id="tspan6186">3</tspan>
    </text>
    <text
       y="575.97638"
       x="480.7341"
       style="font-style:italic;font-variant:normal;font-weight:normal;font-size:9.53187561px;font-family:RMTMI;-inkscape-font-specification:RMTMI;writing-mode:lr-tb;fill:#000000;fill-opacity:1;fill-rule:nonzero;stroke:none"
       id="text6188">
      <tspan
         x="480.7341"
         y="575.97638"
         id="tspan6190">,</tspan>
    </text>
    <text
       y="575.97638"
       x="486.09195"
       style="font-style:italic;font-variant:normal;font-size:9.53187561px;font-family:Times;-inkscape-font-specification:Times-Italic;writing-mode:lr-tb;fill:#000000;fill-opacity:1;fill-rule:nonzero;stroke:none"
       id="text6192">
      <tspan
         x="486.09195"
         y="575.97638"
         id="tspan6194">y</tspan>
    </text>
    <text
       y="578.01752"
       x="490.42935"
       style="font-variant:normal;font-weight:normal;font-size:8.04912472px;font-family:Times;-inkscape-font-specification:Times-Roman;writing-mode:lr-tb;fill:#000000;fill-opacity:1;fill-rule:nonzero;stroke:none"
       id="text6196">
      <tspan
         x="490.42935"
         y="578.01752"
         id="tspan6198">3</tspan>
    </text>
    <text
       y="575.97638"
       x="494.76663"
       style="font-style:italic;font-variant:normal;font-weight:normal;font-size:9.53187561px;font-family:RMTMI;-inkscape-font-specification:RMTMI;writing-mode:lr-tb;fill:#000000;fill-opacity:1;fill-rule:nonzero;stroke:none"
       id="text6200">
      <tspan
         x="494.76663"
         y="575.97638"
         id="tspan6202">)</tspan>
    </text>
    <text
       y="501.59717"
       x="465.56473"
       style="font-style:italic;font-variant:normal;font-size:9.53187561px;font-family:Times;-inkscape-font-specification:Times-Italic;writing-mode:lr-tb;fill:#000000;fill-opacity:1;fill-rule:nonzero;stroke:none"
       id="text6204">
      <tspan
         x="465.56473"
         y="501.59717"
         id="tspan6206">x</tspan>
      <tspan
         x="361.8465"
         y="392.21417"
         id="tspan6208">y</tspan>
      <tspan
         x="315.19275"
         y="528.71161"
         id="tspan6210">P</tspan>
    </text>
    <text
       y="528.71161"
       x="324.37766"
       style="font-variant:normal;font-weight:normal;font-size:9.53187561px;font-family:MTSYN;-inkscape-font-specification:MTSYN;writing-mode:lr-tb;fill:#000000;fill-opacity:1;fill-rule:nonzero;stroke:none"
       id="text6212">
      <tspan
         x="324.37766"
         y="528.71161"
         id="tspan6214">=</tspan>
    </text>
    <text
       y="528.71161"
       x="334.58344"
       style="font-style:italic;font-variant:normal;font-weight:normal;font-size:9.53187561px;font-family:RMTMI;-inkscape-font-specification:RMTMI;writing-mode:lr-tb;fill:#000000;fill-opacity:1;fill-rule:nonzero;stroke:none"
       id="text6216">
      <tspan
         x="334.58344"
         y="528.71161"
         id="tspan6218">(</tspan>
    </text>
    <text
       y="528.71161"
       x="338.41049"
       style="font-style:italic;font-variant:normal;font-size:9.53187561px;font-family:Times;-inkscape-font-specification:Times-Italic;writing-mode:lr-tb;fill:#000000;fill-opacity:1;fill-rule:nonzero;stroke:none"
       id="text6220">
      <tspan
         x="338.41049"
         y="528.71161"
         id="tspan6222">x</tspan>
    </text>
    <text
       y="530.49835"
       x="342.74872"
       style="font-variant:normal;font-weight:normal;font-size:8.04912472px;font-family:Times;-inkscape-font-specification:Times-Roman;writing-mode:lr-tb;fill:#000000;fill-opacity:1;fill-rule:nonzero;stroke:none"
       id="text6224">
      <tspan
         x="342.74872"
         y="530.49835"
         id="tspan6226">1</tspan>
    </text>
    <text
       y="528.71246"
       x="347.34109"
       style="font-style:italic;font-variant:normal;font-weight:normal;font-size:9.53187561px;font-family:RMTMI;-inkscape-font-specification:RMTMI;writing-mode:lr-tb;fill:#000000;fill-opacity:1;fill-rule:nonzero;stroke:none"
       id="text6228">
      <tspan
         x="347.34109"
         y="528.71246"
         id="tspan6230">,</tspan>
    </text>
    <text
       y="528.71246"
       x="352.69897"
       style="font-style:italic;font-variant:normal;font-size:9.53187561px;font-family:Times;-inkscape-font-specification:Times-Italic;writing-mode:lr-tb;fill:#000000;fill-opacity:1;fill-rule:nonzero;stroke:none"
       id="text6232">
      <tspan
         x="352.69897"
         y="528.71246"
         id="tspan6234">y</tspan>
    </text>
    <text
       y="530.49835"
       x="357.03622"
       style="font-variant:normal;font-weight:normal;font-size:8.04912472px;font-family:Times;-inkscape-font-specification:Times-Roman;writing-mode:lr-tb;fill:#000000;fill-opacity:1;fill-rule:nonzero;stroke:none"
       id="text6236">
      <tspan
         x="357.03622"
         y="530.49835"
         id="tspan6238">1</tspan>
    </text>
    <text
       y="528.71246"
       x="361.3736"
       style="font-style:italic;font-variant:normal;font-weight:normal;font-size:9.53187561px;font-family:RMTMI;-inkscape-font-specification:RMTMI;writing-mode:lr-tb;fill:#000000;fill-opacity:1;fill-rule:nonzero;stroke:none"
       id="text6240">
      <tspan
         x="361.3736"
         y="528.71246"
         id="tspan6242">)</tspan>
    </text>
    <text
       y="461.02283"
       x="313.77332"
       style="font-style:italic;font-variant:normal;font-size:9.53187561px;font-family:Times;-inkscape-font-specification:Times-Italic;writing-mode:lr-tb;fill:#000000;fill-opacity:1;fill-rule:nonzero;stroke:none"
       id="text6244">
      <tspan
         x="313.77332"
         y="461.02283"
         id="tspan6246">Q</tspan>
    </text>
    <text
       y="461.02283"
       x="323.72363"
       style="font-variant:normal;font-weight:normal;font-size:9.53187561px;font-family:MTSYN;-inkscape-font-specification:MTSYN;writing-mode:lr-tb;fill:#000000;fill-opacity:1;fill-rule:nonzero;stroke:none"
       id="text6248">
      <tspan
         x="323.72363"
         y="461.02283"
         id="tspan6250">=</tspan>
    </text>
    <text
       y="461.02283"
       x="333.92941"
       style="font-style:italic;font-variant:normal;font-weight:normal;font-size:9.53187561px;font-family:RMTMI;-inkscape-font-specification:RMTMI;writing-mode:lr-tb;fill:#000000;fill-opacity:1;fill-rule:nonzero;stroke:none"
       id="text6252">
      <tspan
         x="333.92941"
         y="461.02283"
         id="tspan6254">(</tspan>
    </text>
    <text
       y="461.02283"
       x="337.75647"
       style="font-style:italic;font-variant:normal;font-size:9.53187561px;font-family:Times;-inkscape-font-specification:Times-Italic;writing-mode:lr-tb;fill:#000000;fill-opacity:1;fill-rule:nonzero;stroke:none"
       id="text6256">
      <tspan
         x="337.75647"
         y="461.02283"
         id="tspan6258">x</tspan>
    </text>
    <text
       y="463.06421"
       x="342.0936"
       style="font-variant:normal;font-weight:normal;font-size:8.04912472px;font-family:Times;-inkscape-font-specification:Times-Roman;writing-mode:lr-tb;fill:#000000;fill-opacity:1;fill-rule:nonzero;stroke:none"
       id="text6260">
      <tspan
         x="342.0936"
         y="463.06421"
         id="tspan6262">2</tspan>
    </text>
    <text
       y="461.02307"
       x="346.68597"
       style="font-style:italic;font-variant:normal;font-weight:normal;font-size:9.53187561px;font-family:RMTMI;-inkscape-font-specification:RMTMI;writing-mode:lr-tb;fill:#000000;fill-opacity:1;fill-rule:nonzero;stroke:none"
       id="text6264">
      <tspan
         x="346.68597"
         y="461.02307"
         id="tspan6266">,</tspan>
    </text>
    <text
       y="461.02307"
       x="352.04382"
       style="font-style:italic;font-variant:normal;font-size:9.53187561px;font-family:Times;-inkscape-font-specification:Times-Italic;writing-mode:lr-tb;fill:#000000;fill-opacity:1;fill-rule:nonzero;stroke:none"
       id="text6268">
      <tspan
         x="352.04382"
         y="461.02307"
         id="tspan6270">y</tspan>
    </text>
    <text
       y="463.06421"
       x="356.3811"
       style="font-variant:normal;font-weight:normal;font-size:8.04912472px;font-family:Times;-inkscape-font-specification:Times-Roman;writing-mode:lr-tb;fill:#000000;fill-opacity:1;fill-rule:nonzero;stroke:none"
       id="text6272">
      <tspan
         x="356.3811"
         y="463.06421"
         id="tspan6274">2</tspan>
    </text>
    <text
       y="461.02307"
       x="360.71848"
       style="font-style:italic;font-variant:normal;font-weight:normal;font-size:9.53187561px;font-family:RMTMI;-inkscape-font-specification:RMTMI;writing-mode:lr-tb;fill:#000000;fill-opacity:1;fill-rule:nonzero;stroke:none"
       id="text6276">
      <tspan
         x="360.71848"
         y="461.02307"
         id="tspan6278">)</tspan>
    </text>
  </g>
</svg>
