<?xml version="1.0" encoding="UTF-8" standalone="no"?>
<!-- Created with Inkscape (http://www.inkscape.org/) -->

<svg
   xmlns:dc="http://purl.org/dc/elements/1.1/"
   xmlns:cc="http://creativecommons.org/ns#"
   xmlns:rdf="http://www.w3.org/1999/02/22-rdf-syntax-ns#"
   xmlns:svg="http://www.w3.org/2000/svg"
   xmlns="http://www.w3.org/2000/svg"
   xmlns:sodipodi="http://sodipodi.sourceforge.net/DTD/sodipodi-0.dtd"
   xmlns:inkscape="http://www.inkscape.org/namespaces/inkscape"
   width="53.267063mm"
   height="59.479065mm"
   viewBox="0 0 188.74156 210.75259"
   id="svg11205"
   version="1.1"
   inkscape:version="0.91 r13725"
   sodipodi:docname="ejemplo duplicación.svg">
  <defs
     id="defs11207" />
  <sodipodi:namedview
     id="base"
     pagecolor="#ffffff"
     bordercolor="#666666"
     borderopacity="1.0"
     inkscape:pageopacity="0.0"
     inkscape:pageshadow="2"
     inkscape:zoom="0.35"
     inkscape:cx="94.370777"
     inkscape:cy="105.3763"
     inkscape:document-units="px"
     inkscape:current-layer="layer1"
     showgrid="false"
     fit-margin-top="0"
     fit-margin-left="0"
     fit-margin-right="0"
     fit-margin-bottom="0"
     inkscape:window-width="576"
     inkscape:window-height="442"
     inkscape:window-x="1232"
     inkscape:window-y="265"
     inkscape:window-maximized="0" />
  <metadata
     id="metadata11210">
    <rdf:RDF>
      <cc:Work
         rdf:about="">
        <dc:format>image/svg+xml</dc:format>
        <dc:type
           rdf:resource="http://purl.org/dc/dcmitype/StillImage" />
        <dc:title></dc:title>
      </cc:Work>
    </rdf:RDF>
  </metadata>
  <g
     inkscape:label="Layer 1"
     inkscape:groupmode="layer"
     id="layer1"
     transform="translate(-280.62922,-426.98591)">
    <path
       d="m 415.80199,609.55283 0,4.675 m 0,-14.02375 0,4.675 m 0,-14.025 0,4.675 m 0,-14.0625 0,4.7125 m 0,-14.0625 0,4.675 m 0,-14.02375 0,4.675 m 0,-14.025 0,4.675 m 0,-14.02375 0,4.67375 m 0,-14.02375 0,4.675 m 0,-14.0625 0,4.675 m 0,-14.025 0,4.675 m 0,-14.02375 0,4.67375 m 0,-14.02375 0,4.675 m 0,-14.025 0,4.675 m 0,-14.0625 0,4.7125 m 0,-14.06125 0,4.67375 m 0,-14.02375 0,4.675 m 0,-14.025 0,4.675 m -3.11625,-2.88875 3.11625,-1.78625 m -9.31125,5.32125 3.0775,-1.74875 m -9.31125,5.32125 3.11625,-1.78625 m -9.31125,5.35875 3.07875,-1.78625 m -9.31125,5.35875 3.11625,-1.78625 m -9.31125,5.32125 3.0775,-1.78625 m -9.31125,5.35875 3.11625,-1.78625 m -9.31125,5.35875 3.07875,-1.78625 m -9.31125,5.32125 3.11625,-1.74875 m -9.31125,5.32125 3.11625,-1.78625 m -9.35,5.35875 3.1175,-1.78625 m -9.3125,5.35875 3.1175,-1.78625 m -9.35,5.32125 3.11625,-1.78625 m -9.31125,5.35875 3.11625,-1.78625 m -9.35,5.35875 3.1175,-1.78625 m -9.3125,5.32 3.1175,-1.7475 m -9.35,5.32125 3.11625,-1.7875 m -9.31125,5.36 3.11625,-1.78625 m -9.34875,5.35875 3.11625,-1.78625 m -9.31125,5.32 3.11625,-1.78625"
       style="fill:none;stroke:#000000;stroke-width:0.60750002;stroke-linecap:round;stroke-linejoin:round;stroke-miterlimit:10;stroke-dasharray:none;stroke-opacity:1"
       id="path6308"
       inkscape:connector-curvature="0" />
    <path
       d="m 424.23949,431.22783 -1.255,2.88875 m -0.72125,1.63375 0.72125,-1.63375 m -0.72125,1.63375 -0.5325,1.2925 m -1.02625,2.39375 1.02625,-2.39375 m 0.5325,191.93125 -1.55875,-3.68625 m 3.535,8.21 -1.97625,-4.52375 m -1.55875,-189.5375 -0.2275,0.495 m -0.1525,0.30375 0.1525,-0.30375 m -0.1525,0.30375 -1.14,2.58375 m -0.875,1.90125 0.875,-1.90125 m -0.875,1.90125 -0.4175,0.9875 m -0.76,1.78625 0.76,-1.78625 m 0.4175,174.2975 -1.1775,-2.775 m 1.1775,2.775 1.52125,3.42 m 0.49375,1.065 -0.49375,-1.065 m 0.87375,1.8625 -0.38,-0.7975 m -3.1925,-176.99625 -0.49375,1.1025 m -0.305,0.60875 0.305,-0.60875 m -0.305,0.60875 -0.9875,2.24125 m -1.02625,2.28125 1.02625,-2.28125 m -1.02625,2.28125 -0.26625,0.6075 m -0.45625,1.1025 0.45625,-1.1025 m 0.26625,156.6625 -0.7225,-1.71 m 0.7225,1.71 0.95,2.1275 m 1.06375,2.395 -1.06375,-2.395 m 1.8625,4.105 -0.79875,-1.71 m -2.73625,-160.0825 -0.83625,1.74875 m -0.49375,1.02625 0.49375,-1.02625 m -0.49375,1.02625 -0.7975,1.82375 m -1.21625,2.66 1.21625,-2.66 m -1.21625,2.66 -0.0762,0.19 m -0.1525,0.38 0.1525,-0.38 m 0.0762,139.14125 -0.22875,-0.57 m 0.22875,0.57 0.34125,0.68375 m 1.6725,3.80125 -1.6725,-3.80125 m 3.0025,6.57625 -1.33,-2.775 m -2.2425,-143.24625 -1.14,2.47125 m -0.7225,1.44375 0.7225,-1.44375 m -0.7225,1.44375 -0.6075,1.40625 m -1.06375,2.4325 1.06375,-2.4325 m 0.6075,128.955 -1.67125,-3.8375 m 3.53375,7.7525 -1.8625,-3.915 m -1.67125,-126.5225 -0.22875,0.4175 m -0.11375,0.26625 0.11375,-0.26625 m -0.11375,0.26625 -1.21625,2.54625 m -0.9125,1.93875 0.9125,-1.93875 m -0.9125,1.93875 -0.38,0.9125 m -0.7225,1.6725 0.7225,-1.6725 m 0.38,111.43375 -1.1025,-2.58375 m 1.1025,2.58375 1.635,3.45875 m 0.49375,1.02625 -0.49375,-1.02625 m 0.83625,1.71125 -0.3425,-0.685 m -3.23125,-114.24625 -0.57,1.1775 m -0.38,0.7225 0.38,-0.7225 m -0.38,0.7225 -0.95,2.09 m -1.1025,2.395 1.1025,-2.395 m -1.1025,2.395 -0.19,0.45625 m -0.38,0.87375 0.38,-0.87375 m 0.19,93.95125 -0.57,-1.33 m 0.57,1.33 0.7225,1.63375 m 1.33,2.85125 -1.33,-2.85125 m 2.28,4.75125 -0.95,-1.9 m -2.6225,-97.5625 -0.95,1.97625 m -0.57,1.21625 0.57,-1.21625"
       style="fill:none;stroke:#4c4c4c;stroke-width:0.60750002;stroke-linecap:round;stroke-linejoin:round;stroke-miterlimit:10;stroke-dasharray:none;stroke-opacity:1"
       id="path6310"
       inkscape:connector-curvature="0" />
    <path
       d="m 397.82449,489.68158 -0.7225,1.63375 m -1.25375,2.85125 1.25375,-2.85125 m -1.25375,2.85125 0,0.0375 m -0.0375,0.0375 0.0375,-0.0375 m 0,76.355 -0.0375,-0.0763 m 0.0375,0.0763 0.0387,0.11375 m 1.9375,4.37125 -1.9375,-4.37125 m 3.4575,7.56375 -1.52,-3.1925 m -2.01375,-80.8025 -1.2925,2.775 m -0.76,1.63375 0.76,-1.63375 m -0.76,1.63375 -0.49375,1.2925 m -1.02625,2.47125 1.02625,-2.47125 m 0.49375,66.13125 -1.52,-3.7625 m 3.5725,8.17125 -2.0525,-4.40875 m -1.52,-63.66 -0.22875,0.455 m -0.11375,0.26625 0.11375,-0.26625 m -0.11375,0.26625 -1.1025,2.66125 m -0.7975,1.86125 0.7975,-1.86125 m -0.7975,1.86125 -0.38,1.14125 m -0.9125,2.54625 0.9125,-2.54625 m 0.38,48.2675 -1.2925,-3.68625 m 1.2925,3.68625 1.4825,3.535 m 0.4175,0.9875 -0.4175,-0.9875 m 0.76,1.71 -0.3425,-0.7225 m -3.1925,-50.24375 -0.2275,0.53125 m -0.115,0.26625 0.115,-0.26625 m -0.115,0.26625 -0.9875,2.8125 m -0.60875,1.6725 0.60875,-1.6725 m -0.60875,1.6725 -0.38,1.55875 m -0.7975,2.92625 0.7975,-2.92625 m -0.7975,2.92625 -0.0763,0.49375 m -0.38,2.205 0.38,-2.205 m 0.0763,22.00625 -0.45625,-2.69875 m 0.45625,2.69875 0.26625,0.87375 m 0.91125,3.61 -0.91125,-3.61 m 0.91125,3.61 1.33,3.725 m 0.26625,0.76 -0.26625,-0.76 m 0.60875,1.55875 -0.3425,-0.79875 m -3.23,-28.77 -0.30375,1.40625 m -0.115,0.4175 0.115,-0.4175 m -0.115,0.4175 -0.38,3.45875 m -0.11375,1.02625 0.11375,-1.02625 m -0.11375,1.02625 0,3.34375 m 0,1.14125 0,-1.14125 m 0,1.14125 0.45625,3.87625 m 0.0375,0.6075 -0.0375,-0.6075 m 0.45625,2.4325 -0.41875,-1.825 m -41.54,-13.45375 -0.7225,-1.6725 m 0.7225,1.6725 0.26625,1.21625 m 0.68375,3.26875 -0.68375,-3.26875 m 0.68375,3.26875 0,2.09 m 0,2.395 0,-2.395 m 0,2.395 -0.3425,1.67125 m -0.6075,2.8125 0.6075,-2.8125 m -0.6075,2.8125 -0.22875,0.60875 m -0.49375,1.06375 0.49375,-1.06375 m -1.71,-18.585 -2.31875,-3.5725 m 3.535,6.4225 -1.21625,-2.85 m 1.21625,19.64875 -0.76,1.825 m -0.45625,1.02625 0.45625,-1.02625 m -0.45625,1.02625 -1.02625,1.59625 m -1.2925,1.97625 1.2925,-1.97625 m -1.93875,-28.58125 -2.92625,-3.11625 m 3.5725,4.02875 -0.64625,-0.9125"
       style="fill:none;stroke:#4c4c4c;stroke-width:0.60750002;stroke-linecap:round;stroke-linejoin:round;stroke-miterlimit:10;stroke-dasharray:none;stroke-opacity:1"
       id="path6312"
       inkscape:connector-curvature="0" />
    <path
       d="m 338.91449,547.18533 -0.34125,0.49375 m -0.305,0.4175 0.305,-0.4175 m -0.305,0.4175 -1.5575,1.6725 m -1.36875,1.445 1.36875,-1.445 m -2.8125,-37.62625 -2.09,-1.5575 m 3.53375,2.92625 -1.44375,-1.36875 m 1.44375,39.07125 -0.6075,0.57 m -0.83625,0.7975 0.83625,-0.7975 m -0.83625,0.7975 -1.33,0.98875 m -0.76,0.57 0.76,-0.57 m -0.76,-42.985 -2.31875,-1.33 m -1.25375,-0.76125 1.25375,0.76125 m 2.31875,44.885 -1.59625,0.95 m -1.97625,1.14 1.97625,-1.14 m -4.18125,-47.4325 -1.33,-0.455 m 3.535,1.29125 -2.205,-0.83625 m 2.205,48.5725 -0.5325,0.19 m -1.6725,0.64625 1.6725,-0.64625 m -1.6725,0.64625 -1.06375,0.3425 m -0.26625,0.11375 0.26625,-0.11375 m -0.26625,-50.20625 -0.38,-0.0387 m -3.1925,-0.34125 3.1925,0.34125 m 0.38,50.35875 -2.965,0.30375 m -0.6075,0.0763 0.6075,-0.0763 m -0.6075,-51.00375 -0.60875,0.075 m -2.96375,0.38 2.96375,-0.38 m 0.60875,51.005 -3.23125,-0.41875 m -0.34125,-0.0375 0.34125,0.0375 m -0.34125,-50.20625 -0.19,0.0763 m -0.7225,0.30375 0.7225,-0.30375 m -0.7225,0.30375 -1.9,0.9125 m -0.7225,0.38 0.7225,-0.38 m 1.9,48.49625 -2.6225,-1.2925 m 3.535,1.6725 -0.9125,-0.38 m -2.6225,-48.11625 -1.4825,1.2925 m -2.09,1.82375 2.09,-1.82375 m 1.4825,45.53125 -3.345,-2.92625 m -0.2275,-0.19 0.2275,0.19 m -0.2275,-40.78125 -0.0375,0.0387 m 0,0.0375 0,-0.0375 m 0,0.0375 -1.55875,2.47125 m -1.21625,2.01375 1.21625,-2.01375 m -1.21625,2.01375 -0.26625,0.57 m -0.45625,1.02625 0.45625,-1.02625 m 0.26625,30.89875 -0.7225,-1.59625 m 0.7225,1.59625 2.50875,4.105 m 0.26625,0.38 -0.26625,-0.38 m 0.30375,0.45625 -0.0375,-0.0763 m -3.4975,-34.3575 -0.68375,2.015 m -0.30375,0.87375 0.30375,-0.87375 m -0.30375,0.87375 -0.57,2.54625 m -0.45625,1.97625 0.45625,-1.97625 m -0.45625,1.97625 -0.19,1.71 m -0.30375,2.775 0.30375,-2.775 m -0.30375,2.775 0,1.33 m 0,3.155 0,-3.155 m 0,3.155 0.15125,1.5575 m 0.3425,2.92625 -0.3425,-2.92625 m 0.3425,2.92625 0.6075,2.775 m 0.41875,1.74875 -0.41875,-1.74875 m 1.40625,4.63625 -0.9875,-2.8875"
       style="fill:none;stroke:#4c4c4c;stroke-width:0.60750002;stroke-linecap:round;stroke-linejoin:round;stroke-miterlimit:10;stroke-dasharray:none;stroke-opacity:1"
       id="path6314"
       inkscape:connector-curvature="0" />
    <path
       d="m 417.32949,614.23158 c 0,-0.83875 -0.68125,-1.52 -1.52,-1.52 -0.83875,0 -1.52,0.68125 -1.52,1.52 0,0.83875 0.68125,1.52 1.52,1.52 0.83875,0 1.52,-0.68125 1.52,-1.52 m -101.175,-105.75 c 0,-0.83875 -0.68125,-1.52 -1.52,-1.52 -0.83875,0 -1.52,0.68125 -1.52,1.52 0,0.83875 0.68125,1.52 1.52,1.52 0.83875,0 1.52,-0.68125 1.52,-1.52 m 28.08125,129.12 0,-210.47875 m -55.98375,105.24 152.02625,0"
       style="fill:none;stroke:#000000;stroke-width:0.27000001;stroke-linecap:round;stroke-linejoin:round;stroke-miterlimit:10;stroke-dasharray:none;stroke-opacity:1"
       id="path6316"
       inkscape:connector-curvature="0" />
    <text
       y="612.36572"
       x="421.07275"
       style="font-style:italic;font-variant:normal;font-size:9.53187561px;font-family:Times;-inkscape-font-specification:Times-Italic;writing-mode:lr-tb;fill:#000000;fill-opacity:1;fill-rule:nonzero;stroke:none"
       id="text6318">
      <tspan
         x="421.07275"
         y="612.36572"
         id="tspan6320">R</tspan>
    </text>
    <text
       y="612.36572"
       x="430.0022"
       style="font-variant:normal;font-weight:normal;font-size:9.53187561px;font-family:MTSYN;-inkscape-font-specification:MTSYN;writing-mode:lr-tb;fill:#000000;fill-opacity:1;fill-rule:nonzero;stroke:none"
       id="text6322">
      <tspan
         x="430.0022"
         y="612.36572"
         id="tspan6324">=</tspan>
    </text>
    <text
       y="612.36572"
       x="440.20798"
       style="font-style:italic;font-variant:normal;font-weight:normal;font-size:9.53187561px;font-family:RMTMI;-inkscape-font-specification:RMTMI;writing-mode:lr-tb;fill:#000000;fill-opacity:1;fill-rule:nonzero;stroke:none"
       id="text6326">
      <tspan
         x="440.20798"
         y="612.36572"
         id="tspan6328">(</tspan>
    </text>
    <text
       y="612.36572"
       x="444.03503"
       style="font-style:italic;font-variant:normal;font-size:9.53187561px;font-family:Times;-inkscape-font-specification:Times-Italic;writing-mode:lr-tb;fill:#000000;fill-opacity:1;fill-rule:nonzero;stroke:none"
       id="text6330">
      <tspan
         x="444.03503"
         y="612.36572"
         id="tspan6332">x</tspan>
    </text>
    <text
       y="614.40686"
       x="448.37225"
       style="font-variant:normal;font-weight:normal;font-size:8.04912472px;font-family:Times;-inkscape-font-specification:Times-Roman;writing-mode:lr-tb;fill:#000000;fill-opacity:1;fill-rule:nonzero;stroke:none"
       id="text6334">
      <tspan
         x="448.37225"
         y="614.40686"
         id="tspan6336">3</tspan>
    </text>
    <text
       y="612.36572"
       x="452.9646"
       style="font-style:italic;font-variant:normal;font-weight:normal;font-size:9.53187561px;font-family:RMTMI;-inkscape-font-specification:RMTMI;writing-mode:lr-tb;fill:#000000;fill-opacity:1;fill-rule:nonzero;stroke:none"
       id="text6338">
      <tspan
         x="452.9646"
         y="612.36572"
         id="tspan6340">,</tspan>
    </text>
    <text
       y="612.36572"
       x="458.32248"
       style="font-style:italic;font-variant:normal;font-size:9.53187561px;font-family:Times;-inkscape-font-specification:Times-Italic;writing-mode:lr-tb;fill:#000000;fill-opacity:1;fill-rule:nonzero;stroke:none"
       id="text6342">
      <tspan
         x="458.32248"
         y="612.36572"
         id="tspan6344">y</tspan>
    </text>
    <text
       y="614.40686"
       x="462.65973"
       style="font-variant:normal;font-weight:normal;font-size:8.04912472px;font-family:Times;-inkscape-font-specification:Times-Roman;writing-mode:lr-tb;fill:#000000;fill-opacity:1;fill-rule:nonzero;stroke:none"
       id="text6346">
      <tspan
         x="462.65973"
         y="614.40686"
         id="tspan6348">3</tspan>
    </text>
    <text
       y="612.36572"
       x="466.99713"
       style="font-style:italic;font-variant:normal;font-weight:normal;font-size:9.53187561px;font-family:RMTMI;-inkscape-font-specification:RMTMI;writing-mode:lr-tb;fill:#000000;fill-opacity:1;fill-rule:nonzero;stroke:none"
       id="text6350">
      <tspan
         x="466.99713"
         y="612.36572"
         id="tspan6352">)</tspan>
    </text>
    <text
       y="541.59723"
       x="439.39185"
       style="font-style:italic;font-variant:normal;font-size:9.53187561px;font-family:Times;-inkscape-font-specification:Times-Italic;writing-mode:lr-tb;fill:#000000;fill-opacity:1;fill-rule:nonzero;stroke:none"
       id="text6354">
      <tspan
         x="439.39185"
         y="541.59723"
         id="tspan6356">x</tspan>
      <tspan
         x="335.67361"
         y="432.21423"
         id="tspan6358">y</tspan>
      <tspan
         x="280.68042"
         y="494.2572"
         id="tspan6360">P</tspan>
    </text>
    <text
       y="494.2572"
       x="289.86533"
       style="font-variant:normal;font-weight:normal;font-size:9.53187561px;font-family:MTSYN;-inkscape-font-specification:MTSYN;writing-mode:lr-tb;fill:#000000;fill-opacity:1;fill-rule:nonzero;stroke:none"
       id="text6362">
      <tspan
         x="289.86533"
         y="494.2572"
         id="tspan6364">=</tspan>
    </text>
    <text
       y="494.2572"
       x="300.07111"
       style="font-style:italic;font-variant:normal;font-weight:normal;font-size:9.53187561px;font-family:RMTMI;-inkscape-font-specification:RMTMI;writing-mode:lr-tb;fill:#000000;fill-opacity:1;fill-rule:nonzero;stroke:none"
       id="text6366">
      <tspan
         x="300.07111"
         y="494.2572"
         id="tspan6368">(</tspan>
    </text>
    <text
       y="494.2572"
       x="303.89816"
       style="font-style:italic;font-variant:normal;font-size:9.53187561px;font-family:Times;-inkscape-font-specification:Times-Italic;writing-mode:lr-tb;fill:#000000;fill-opacity:1;fill-rule:nonzero;stroke:none"
       id="text6370">
      <tspan
         x="303.89816"
         y="494.2572"
         id="tspan6372">x</tspan>
    </text>
    <text
       y="496.29919"
       x="308.23624"
       style="font-variant:normal;font-weight:normal;font-size:8.04912472px;font-family:Times;-inkscape-font-specification:Times-Roman;writing-mode:lr-tb;fill:#000000;fill-opacity:1;fill-rule:nonzero;stroke:none"
       id="text6374">
      <tspan
         x="308.23624"
         y="496.29919"
         id="tspan6376">1</tspan>
    </text>
    <text
       y="494.25809"
       x="312.82874"
       style="font-style:italic;font-variant:normal;font-weight:normal;font-size:9.53187561px;font-family:RMTMI;-inkscape-font-specification:RMTMI;writing-mode:lr-tb;fill:#000000;fill-opacity:1;fill-rule:nonzero;stroke:none"
       id="text6378">
      <tspan
         x="312.82874"
         y="494.25809"
         id="tspan6380">,</tspan>
    </text>
    <text
       y="494.25809"
       x="318.18658"
       style="font-style:italic;font-variant:normal;font-size:9.53187561px;font-family:Times;-inkscape-font-specification:Times-Italic;writing-mode:lr-tb;fill:#000000;fill-opacity:1;fill-rule:nonzero;stroke:none"
       id="text6382">
      <tspan
         x="318.18658"
         y="494.25809"
         id="tspan6384">y</tspan>
    </text>
    <text
       y="496.29919"
       x="322.52386"
       style="font-variant:normal;font-weight:normal;font-size:8.04912472px;font-family:Times;-inkscape-font-specification:Times-Roman;writing-mode:lr-tb;fill:#000000;fill-opacity:1;fill-rule:nonzero;stroke:none"
       id="text6386">
      <tspan
         x="322.52386"
         y="496.29919"
         id="tspan6388">1</tspan>
    </text>
    <text
       y="494.25809"
       x="326.86111"
       style="font-style:italic;font-variant:normal;font-weight:normal;font-size:9.53187561px;font-family:RMTMI;-inkscape-font-specification:RMTMI;writing-mode:lr-tb;fill:#000000;fill-opacity:1;fill-rule:nonzero;stroke:none"
       id="text6390">
      <tspan
         x="326.86111"
         y="494.25809"
         id="tspan6392">)</tspan>
    </text>
  </g>
</svg>
